# xmcd CD database file
#
# Track frame offsets:
#	183
#	3408
#	40520
#	50613
#	64875
#	76570
#	93335
#	110130
#	123125
#	140685
#	150633
#	168973
#	181863
#	209995
#
# Disc length: 2944 seconds
#
# Revision: 12
# Processed by: cddbd v1.5.2PL0 Copyright (c) Steve Scherf et al.
# Submitted via: CDex 2.05
#
DISCID=b60b7e0e
DTITLE=The Carpenters - Christmas Collection [Disc 2]
DYEAR=1998
DGENRE=Holiday
TTITLE0=It Came Upon a Midnight Clear
TTITLE1=Overture: Happy Holiday - The First Noel - March of the Toys - Little Jesus - I Saw Mommy Kissing Santa Claus - O Little Town ...
TTITLE2=An Old-Fashioned Christmas
TTITLE3=O Holy Night
TTITLE4=(There's No Place Like) Home for the Holidays
TTITLE5=Medley: Here Comes Santa Claus - Frosty the Snowman - Rudolph the Red-Nosed Reindeer - Good King Wenceslas
TTITLE6=Little Altar Boy
TTITLE7=Do You Hear What I Hear?
TTITLE8=My Favorite Things
TTITLE9=He Came Here for Me
TTITLE10=Santa Claus Is Coming to Town
TTITLE11=What are You Doing New Year's Eve?
TTITLE12=Selections from 'The Nutcracker': Overture Miniature - Dance of the Sugar Plum Fairy - Trepak - Valse des Fleurs
TTITLE13=I Heard the Bells on Christmas Day
EXTD=2 Disc-Set "Carpenters Christmas" Collection (Christmas Portrait and An Old-Fashioned Christmas]\n YEAR: 1998
EXTT0=
EXTT1=
EXTT2=
EXTT3=
EXTT4=
EXTT5=
EXTT6=
EXTT7=
EXTT8=
EXTT9=
EXTT10=
EXTT11=
EXTT12=
EXTT13=
PLAYORDER=
